<?xml version="1.0" encoding="UTF-8"?>
<svg xmlns="http://www.w3.org/2000/svg" width="0.4010in" height="8.7120in" viewBox="0 0 0.4010 8.7120" preserveAspectRatio="xMidYMid meet">
  <title>Em feature constellation+arrow</title>
  <desc>Inlay pattern. Origin at bottom-left. Units in inches.</desc>
  <g fill="#7A4A2A" stroke="#3A1F0A" stroke-width="0.005" transform="translate(0,8.7120) scale(1,-1)">
    <polygon points="0.0000,0.0000 0.4010,0.0000 0.4010,8.7120 0.0000,8.7120" />
    <line x1="0.1203" y1="7.4052" x2="0.2205" y2="6.7954" stroke="#5A2F0A" stroke-width="0.008" />
    <line x1="0.2205" y1="6.7954" x2="0.2807" y2="5.4014" stroke="#5A2F0A" stroke-width="0.008" />
    <line x1="0.2205" y1="6.7954" x2="0.1684" y2="5.9242" stroke="#5A2F0A" stroke-width="0.008" />
    <line x1="0.1684" y1="5.9242" x2="0.1002" y2="5.0530" stroke="#5A2F0A" stroke-width="0.008" />
    <line x1="0.2807" y1="5.4014" x2="0.2406" y2="4.3560" stroke="#5A2F0A" stroke-width="0.008" />
    <line x1="0.2406" y1="4.3560" x2="0.1604" y2="3.4848" stroke="#5A2F0A" stroke-width="0.008" />
    <polygon points="0.1203,7.4452 0.1097,7.4198 0.0823,7.4176 0.1032,7.3996 0.0968,7.3728 0.1203,7.3872 0.1438,7.3728 0.1374,7.3996 0.1583,7.4176 0.1309,7.4198" />
    <polygon points="0.2205,6.8504 0.2060,6.8154 0.1682,6.8124 0.1970,6.7877 0.1882,6.7509 0.2205,6.7706 0.2529,6.7509 0.2441,6.7877 0.2729,6.8124 0.2351,6.8154" />
    <polygon points="0.1684,5.9542 0.1605,5.9351 0.1399,5.9334 0.1556,5.9200 0.1508,5.8999 0.1684,5.9107 0.1861,5.8999 0.1813,5.9200 0.1970,5.9334 0.1764,5.9351" />
    <polygon points="0.2807,5.4394 0.2706,5.4153 0.2446,5.4132 0.2644,5.3962 0.2584,5.3707 0.2807,5.3843 0.3030,5.3707 0.2970,5.3962 0.3168,5.4132 0.2908,5.4153" />
    <polygon points="0.1002,5.0880 0.0910,5.0657 0.0670,5.0638 0.0853,5.0481 0.0797,5.0246 0.1002,5.0372 0.1208,5.0246 0.1152,5.0481 0.1335,5.0638 0.1095,5.0657" />
    <polygon points="0.2406,4.4010 0.2287,4.3724 0.1978,4.3699 0.2213,4.3497 0.2141,4.3196 0.2406,4.3358 0.2671,4.3196 0.2599,4.3497 0.2834,4.3699 0.2525,4.3724" />
    <polygon points="0.1604,3.5148 0.1525,3.4957 0.1319,3.4941 0.1476,3.4806 0.1428,3.4605 0.1604,3.4713 0.1780,3.4605 0.1732,3.4806 0.1889,3.4941 0.1683,3.4957" />
    <polygon points="0.1885,0.4356 0.2125,0.4356 0.2125,2.6136 0.1885,2.6136" />
    <polygon points="0.1620,2.6136 0.2390,2.6136 0.2005,3.1363" />
    <polygon points="0.1764,0.4356 0.1909,0.4356 0.1837,0.8712" />
    <polygon points="0.1933,0.4356 0.2077,0.4356 0.2005,0.8712" />
    <polygon points="0.2101,0.4356 0.2246,0.4356 0.2173,0.8712" />
  </g>
</svg>
