<?xml version="1.0" encoding="UTF-8"?>
<svg xmlns="http://www.w3.org/2000/svg" width="0.4520in" height="9.5437in" viewBox="0 0 0.4520 9.5437" preserveAspectRatio="xMidYMid meet">
  <title>Dm feature constellation+arrow</title>
  <desc>Inlay pattern. Origin at bottom-left. Units in inches.</desc>
  <g fill="#7A4A2A" stroke="#3A1F0A" stroke-width="0.005" transform="translate(0,9.5437) scale(1,-1)">
    <polygon points="0.0000,0.0000 0.4520,0.0000 0.4520,9.5437 0.0000,9.5437" />
    <line x1="0.1356" y1="8.1121" x2="0.2486" y2="7.4441" stroke="#5A2F0A" stroke-width="0.008" />
    <line x1="0.2486" y1="7.4441" x2="0.3164" y2="5.9171" stroke="#5A2F0A" stroke-width="0.008" />
    <line x1="0.2486" y1="7.4441" x2="0.1898" y2="6.4897" stroke="#5A2F0A" stroke-width="0.008" />
    <line x1="0.1898" y1="6.4897" x2="0.1130" y2="5.5353" stroke="#5A2F0A" stroke-width="0.008" />
    <line x1="0.3164" y1="5.9171" x2="0.2712" y2="4.7718" stroke="#5A2F0A" stroke-width="0.008" />
    <line x1="0.2712" y1="4.7718" x2="0.1808" y2="3.8175" stroke="#5A2F0A" stroke-width="0.008" />
    <polygon points="0.1356,8.1521 0.1250,8.1267 0.0976,8.1245 0.1185,8.1066 0.1121,8.0798 0.1356,8.0941 0.1591,8.0798 0.1527,8.1066 0.1736,8.1245 0.1462,8.1267" />
    <polygon points="0.2486,7.4991 0.2341,7.4641 0.1963,7.4611 0.2251,7.4364 0.2163,7.3996 0.2486,7.4193 0.2809,7.3996 0.2721,7.4364 0.3009,7.4611 0.2631,7.4641" />
    <polygon points="0.1898,6.5197 0.1819,6.5006 0.1613,6.4990 0.1770,6.4855 0.1722,6.4654 0.1898,6.4762 0.2075,6.4654 0.2027,6.4855 0.2184,6.4990 0.1978,6.5006" />
    <polygon points="0.3164,5.9551 0.3063,5.9309 0.2803,5.9288 0.3001,5.9118 0.2941,5.8863 0.3164,5.9000 0.3387,5.8863 0.3327,5.9118 0.3525,5.9288 0.3265,5.9309" />
    <polygon points="0.1130,5.5703 0.1037,5.5481 0.0797,5.5461 0.0980,5.5305 0.0924,5.5070 0.1130,5.5196 0.1336,5.5070 0.1280,5.5305 0.1463,5.5461 0.1223,5.5481" />
    <polygon points="0.2712,4.8168 0.2593,4.7882 0.2284,4.7857 0.2519,4.7656 0.2447,4.7354 0.2712,4.7516 0.2977,4.7354 0.2905,4.7656 0.3140,4.7857 0.2831,4.7882" />
    <polygon points="0.1808,3.8475 0.1729,3.8284 0.1523,3.8267 0.1680,3.8133 0.1632,3.7932 0.1808,3.8040 0.1984,3.7932 0.1936,3.8133 0.2093,3.8267 0.1887,3.8284" />
    <polygon points="0.2124,0.4772 0.2396,0.4772 0.2396,2.8631 0.2124,2.8631" />
    <polygon points="0.1826,2.8631 0.2694,2.8631 0.2260,3.4357" />
    <polygon points="0.1989,0.4772 0.2152,0.4772 0.2070,0.9544" />
    <polygon points="0.2179,0.4772 0.2341,0.4772 0.2260,0.9544" />
    <polygon points="0.2368,0.4772 0.2531,0.4772 0.2450,0.9544" />
  </g>
</svg>
