<?xml version="1.0" encoding="UTF-8"?>
<svg xmlns="http://www.w3.org/2000/svg" width="0.3490in" height="7.9958in" viewBox="0 0 0.3490 7.9958" preserveAspectRatio="xMidYMid meet">
  <title>F#m feature constellation+arrow</title>
  <desc>Inlay pattern. Origin at bottom-left. Units in inches.</desc>
  <g fill="#7A4A2A" stroke="#3A1F0A" stroke-width="0.005" transform="translate(0,7.9958) scale(1,-1)">
    <polygon points="0.0000,0.0000 0.3490,0.0000 0.3490,7.9958 0.0000,7.9958" />
    <line x1="0.1047" y1="6.7965" x2="0.1920" y2="6.2368" stroke="#5A2F0A" stroke-width="0.008" />
    <line x1="0.1920" y1="6.2368" x2="0.2443" y2="4.9574" stroke="#5A2F0A" stroke-width="0.008" />
    <line x1="0.1920" y1="6.2368" x2="0.1466" y2="5.4372" stroke="#5A2F0A" stroke-width="0.008" />
    <line x1="0.1466" y1="5.4372" x2="0.0873" y2="4.6376" stroke="#5A2F0A" stroke-width="0.008" />
    <line x1="0.2443" y1="4.9574" x2="0.2094" y2="3.9979" stroke="#5A2F0A" stroke-width="0.008" />
    <line x1="0.2094" y1="3.9979" x2="0.1396" y2="3.1983" stroke="#5A2F0A" stroke-width="0.008" />
    <polygon points="0.1047,6.8365 0.0941,6.8110 0.0667,6.8088 0.0876,6.7909 0.0812,6.7641 0.1047,6.7785 0.1282,6.7641 0.1218,6.7909 0.1427,6.8088 0.1153,6.8110" />
    <polygon points="0.1920,6.2918 0.1774,6.2568 0.1396,6.2538 0.1684,6.2291 0.1596,6.1923 0.1920,6.2120 0.2243,6.1923 0.2155,6.2291 0.2443,6.2538 0.2065,6.2568" />
    <polygon points="0.1466,5.4672 0.1386,5.4481 0.1180,5.4464 0.1337,5.4330 0.1289,5.4129 0.1466,5.4237 0.1642,5.4129 0.1594,5.4330 0.1751,5.4464 0.1545,5.4481" />
    <polygon points="0.2443,4.9954 0.2342,4.9713 0.2082,4.9692 0.2280,4.9521 0.2220,4.9267 0.2443,4.9403 0.2666,4.9267 0.2606,4.9521 0.2804,4.9692 0.2544,4.9713" />
    <polygon points="0.0873,4.6726 0.0780,4.6503 0.0540,4.6484 0.0723,4.6327 0.0667,4.6093 0.0873,4.6218 0.1078,4.6093 0.1022,4.6327 0.1205,4.6484 0.0965,4.6503" />
    <polygon points="0.2094,4.0429 0.1975,4.0143 0.1666,4.0118 0.1901,3.9917 0.1829,3.9615 0.2094,3.9777 0.2359,3.9615 0.2287,3.9917 0.2522,4.0118 0.2213,4.0143" />
    <polygon points="0.1396,3.2283 0.1317,3.2093 0.1111,3.2076 0.1268,3.1942 0.1220,3.1741 0.1396,3.1848 0.1572,3.1741 0.1524,3.1942 0.1681,3.2076 0.1475,3.2093" />
    <polygon points="0.1640,0.3998 0.1850,0.3998 0.1850,2.3988 0.1640,2.3988" />
    <polygon points="0.1410,2.3988 0.2080,2.3988 0.1745,2.8785" />
    <polygon points="0.1536,0.3998 0.1661,0.3998 0.1598,0.7996" />
    <polygon points="0.1682,0.3998 0.1808,0.3998 0.1745,0.7996" />
    <polygon points="0.1829,0.3998 0.1954,0.3998 0.1892,0.7996" />
  </g>
</svg>
