<?xml version="1.0" encoding="UTF-8"?>
<svg xmlns="http://www.w3.org/2000/svg" width="0.2970in" height="7.0294in" viewBox="0 0 0.2970 7.0294" preserveAspectRatio="xMidYMid meet">
  <title>Am feature constellation+arrow</title>
  <desc>Inlay pattern. Origin at bottom-left. Units in inches.</desc>
  <g fill="#7A4A2A" stroke="#3A1F0A" stroke-width="0.005" transform="translate(0,7.0294) scale(1,-1)">
    <polygon points="0.0000,0.0000 0.2970,0.0000 0.2970,7.0294 0.0000,7.0294" />
    <line x1="0.0891" y1="5.9750" x2="0.1633" y2="5.4830" stroke="#5A2F0A" stroke-width="0.008" />
    <line x1="0.1633" y1="5.4830" x2="0.2079" y2="4.3583" stroke="#5A2F0A" stroke-width="0.008" />
    <line x1="0.1633" y1="5.4830" x2="0.1247" y2="4.7800" stroke="#5A2F0A" stroke-width="0.008" />
    <line x1="0.1247" y1="4.7800" x2="0.0742" y2="4.0771" stroke="#5A2F0A" stroke-width="0.008" />
    <line x1="0.2079" y1="4.3583" x2="0.1782" y2="3.5147" stroke="#5A2F0A" stroke-width="0.008" />
    <line x1="0.1782" y1="3.5147" x2="0.1188" y2="2.8118" stroke="#5A2F0A" stroke-width="0.008" />
    <polygon points="0.0891,6.0150 0.0785,5.9896 0.0511,5.9874 0.0720,5.9695 0.0656,5.9427 0.0891,5.9570 0.1126,5.9427 0.1062,5.9695 0.1271,5.9874 0.0997,5.9896" />
    <polygon points="0.1633,5.5380 0.1488,5.5030 0.1110,5.5000 0.1398,5.4753 0.1310,5.4385 0.1633,5.4582 0.1957,5.4385 0.1869,5.4753 0.2157,5.5000 0.1779,5.5030" />
    <polygon points="0.1247,4.8100 0.1168,4.7909 0.0962,4.7893 0.1119,4.7758 0.1071,4.7557 0.1247,4.7665 0.1424,4.7557 0.1376,4.7758 0.1533,4.7893 0.1327,4.7909" />
    <polygon points="0.2079,4.3963 0.1978,4.3721 0.1718,4.3700 0.1916,4.3530 0.1856,4.3275 0.2079,4.3412 0.2302,4.3275 0.2242,4.3530 0.2440,4.3700 0.2180,4.3721" />
    <polygon points="0.0742,4.1121 0.0650,4.0898 0.0410,4.0879 0.0593,4.0722 0.0537,4.0488 0.0742,4.0613 0.0948,4.0488 0.0892,4.0722 0.1075,4.0879 0.0835,4.0898" />
    <polygon points="0.1782,3.5597 0.1663,3.5311 0.1354,3.5286 0.1589,3.5085 0.1517,3.4783 0.1782,3.4945 0.2047,3.4783 0.1975,3.5085 0.2210,3.5286 0.1901,3.5311" />
    <polygon points="0.1188,2.8418 0.1109,2.8227 0.0903,2.8210 0.1060,2.8076 0.1012,2.7875 0.1188,2.7983 0.1364,2.7875 0.1316,2.8076 0.1473,2.8210 0.1267,2.8227" />
    <polygon points="0.1396,0.3515 0.1574,0.3515 0.1574,2.1088 0.1396,2.1088" />
    <polygon points="0.1200,2.1088 0.1770,2.1088 0.1485,2.5306" />
    <polygon points="0.1307,0.3515 0.1414,0.3515 0.1360,0.7029" />
    <polygon points="0.1432,0.3515 0.1538,0.3515 0.1485,0.7029" />
    <polygon points="0.1556,0.3515 0.1663,0.3515 0.1610,0.7029" />
  </g>
</svg>
